ffmpeg started on 2025-05-12 at 13:29:06
Report written to "D:\Convert\FFMetrics\reports\ssim_report-6.txt"
Log level: 32
Command line:
ffmpeg -hide_banner -nostdin -i "G:\\\xc0\xed\xe8\xec\xe5\\\xce\xed\xe3\xee\xe8\xed\xe3\xe8\\!_35_\xcb\xe5\xf2\xee_2024\\DreamCast\\\xc0\xf2\xf0\xe8 - \xcc\xee\xe8 \xe4\xee\xf0\xee\xe3\xe8\xe5 \xec\xee\xec\xe5\xed\xf2\xfb\\[DC] Atri - My Dear Moments - 01_Telegram_HEVC.mkv" -i "G:\\\xc0\xed\xe8\xec\xe5\\\xce\xed\xe3\xee\xe8\xed\xe3\xe8\\!_35_\xcb\xe5\xf2\xee_2024\\DreamCast\\\xc0\xf2\xf0\xe8 - \xcc\xee\xe8 \xe4\xee\xf0\xee\xe3\xe8\xe5 \xec\xee\xec\xe5\xed\xf2\xfb\\[DC] Atri - My Dear Moments - 01_Telegram.mp4" -lavfi "[0:v]settb=AVTB,setpts=PTS-STARTPTS,format=pix_fmts=yuv420p10,fps=24000/1001,scale=1920:1080:flags=bicubic[main];[1:v]settb=AVTB,setpts=PTS-STARTPTS,format=pix_fmts=yuv420p,fps=24000/1001,scale=1920:1080:flags=bicubic[ref];[main][ref]ssim=eof_action=endall:stats_file='D\\:/Convert/FFMetrics/logs/ssim_logfile-6.txt'" -f null -
Input #0, matroska,webm, from 'G:\Аниме\Онгоинги\!_35_Лето_2024\DreamCast\Атри - Мои дорогие моменты\[DC] Atri - My Dear Moments - 01_Telegram_HEVC.mkv':
  Metadata:
    COMPATIBLE_BRANDS: isomiso2avc1mp41
    MAJOR_BRAND     : isom
    MINOR_VERSION   : 512
    ENCODER         : Lavf61.7.100
  Duration: 00:24:36.65, start: -0.021000, bitrate: 1026 kb/s
  Stream #0:0: Video: hevc (Main 10), yuv420p10le(tv, bt709, progressive), 1920x1080 [SAR 1:1 DAR 16:9], 23.98 fps, 23.98 tbr, 1k tbn (default)
      Metadata:
        HANDLER_NAME    : VideoHandler
        VENDOR_ID       : [0][0][0][0]
        ENCODER         : Lavc61.19.100 libx265
        BPS             : 829056
        DURATION        : 00:24:36.558708333
        NUMBER_OF_FRAMES: 35402
        NUMBER_OF_BYTES : 153018742
        _STATISTICS_WRITING_APP: mkvpropedit v66.0.0 ('Josie') 64-bit
        _STATISTICS_WRITING_DATE_UTC: 2025-05-06 13:31:54
        _STATISTICS_TAGS: BPS DURATION NUMBER_OF_FRAMES NUMBER_OF_BYTES
  Stream #0:1: Audio: aac (LC), 48000 Hz, stereo, fltp (default)
      Metadata:
        HANDLER_NAME    : SoundHandler
        VENDOR_ID       : [0][0][0][0]
        ENCODER         : Lavc61.19.100 aac
        BPS             : 193437
        DURATION        : 00:24:36.650000000
        NUMBER_OF_FRAMES: 69219
        NUMBER_OF_BYTES : 35704846
        _STATISTICS_WRITING_APP: mkvpropedit v66.0.0 ('Josie') 64-bit
        _STATISTICS_WRITING_DATE_UTC: 2025-05-06 13:31:54
        _STATISTICS_TAGS: BPS DURATION NUMBER_OF_FRAMES NUMBER_OF_BYTES
Input #1, mov,mp4,m4a,3gp,3g2,mj2, from 'G:\Аниме\Онгоинги\!_35_Лето_2024\DreamCast\Атри - Мои дорогие моменты\[DC] Atri - My Dear Moments - 01_Telegram.mp4':
  Metadata:
    major_brand     : isom
    minor_version   : 512
    compatible_brands: isomiso2avc1mp41
    encoder         : Lavf61.1.100
  Duration: 00:24:36.62, start: 0.000000, bitrate: 3547 kb/s
  Stream #1:0[0x1](und): Video: h264 (High) (avc1 / 0x31637661), yuv420p(tv, bt709, progressive), 1920x1080 [SAR 1:1 DAR 16:9], 3399 kb/s, 23.98 fps, 23.98 tbr, 24k tbn (default)
      Metadata:
        handler_name    : VideoHandler
        vendor_id       : [0][0][0][0]
        encoder         : Lavc61.3.100 h264_qsv
  Stream #1:1[0x2](und): Audio: aac (HE-AACv2) (mp4a / 0x6134706D), 48000 Hz, stereo, fltp, 144 kb/s (default)
      Metadata:
        handler_name    : SoundHandler
        vendor_id       : [0][0][0][0]
Stream mapping:
  Stream #0:0 (hevc) -> settb:default
  Stream #1:0 (h264) -> settb:default
  ssim:default -> Stream #0:0 (wrapped_avframe)
  Stream #0:1 -> #0:1 (aac (native) -> pcm_s16le (native))
Output #0, null, to 'pipe:':
  Metadata:
    COMPATIBLE_BRANDS: isomiso2avc1mp41
    MAJOR_BRAND     : isom
    MINOR_VERSION   : 512
    encoder         : Lavf61.7.100
  Stream #0:0: Video: wrapped_avframe, yuv420p10le(tv, bt709, progressive), 1920x1080 [SAR 1:1 DAR 16:9], q=2-31, 200 kb/s, 23.98 fps, 23.98 tbn
      Metadata:
        encoder         : Lavc61.19.100 wrapped_avframe
  Stream #0:1: Audio: pcm_s16le, 48000 Hz, stereo, s16, 1536 kb/s (default)
      Metadata:
        HANDLER_NAME    : SoundHandler
        VENDOR_ID       : [0][0][0][0]
        _STATISTICS_TAGS: BPS DURATION NUMBER_OF_FRAMES NUMBER_OF_BYTES
        BPS             : 193437
        DURATION        : 00:24:36.650000000
        NUMBER_OF_FRAMES: 69219
        NUMBER_OF_BYTES : 35704846
        _STATISTICS_WRITING_APP: mkvpropedit v66.0.0 ('Josie') 64-bit
        _STATISTICS_WRITING_DATE_UTC: 2025-05-06 13:31:54
        encoder         : Lavc61.19.100 pcm_s16le
frame=  172 fps=0.0 q=-0.0 size=N/A time=00:00:07.17 bitrate=N/A speed=14.3x    frame=  427 fps=416 q=-0.0 size=N/A time=00:00:17.80 bitrate=N/A speed=17.4x    frame=  683 fps=445 q=-0.0 size=N/A time=00:00:28.48 bitrate=N/A speed=18.6x    frame=  939 fps=457 q=-0.0 size=N/A time=00:00:39.16 bitrate=N/A speed=19.1x    frame= 1185 fps=460 q=-0.0 size=N/A time=00:00:49.42 bitrate=N/A speed=19.2x    frame= 1428 fps=463 q=-0.0 size=N/A time=00:00:59.55 bitrate=N/A speed=19.3x    frame= 1671 fps=463 q=-0.0 size=N/A time=00:01:09.69 bitrate=N/A speed=19.3x    frame= 1912 fps=465 q=-0.0 size=N/A time=00:01:19.74 bitrate=N/A speed=19.4x    frame= 2179 fps=470 q=-0.0 size=N/A time=00:01:30.88 bitrate=N/A speed=19.6x    frame= 2418 fps=470 q=-0.0 size=N/A time=00:01:40.85 bitrate=N/A speed=19.6x    frame= 2689 fps=474 q=-0.0 size=N/A time=00:01:52.15 bitrate=N/A speed=19.8x    frame= 2933 fps=475 q=-0.0 size=N/A time=00:02:02.33 bitrate=N/A speed=19.8x    frame= 3091 fps=462 q=-0.0 size=N/A time=00:02:08.92 bitrate=N/A speed=19.2x    frame= 3304 fps=458 q=-0.0 size=N/A time=00:02:17.80 bitrate=N/A speed=19.1x    frame= 3507 fps=454 q=-0.0 size=N/A time=00:02:26.27 bitrate=N/A speed=18.9x    frame= 3784 fps=459 q=-0.0 size=N/A time=00:02:37.82 bitrate=N/A speed=19.1x    frame= 4031 fps=460 q=-0.0 size=N/A time=00:02:48.12 bitrate=N/A speed=19.2x    frame= 4289 fps=463 q=-0.0 size=N/A time=00:02:58.88 bitrate=N/A speed=19.3x    frame= 4547 fps=464 q=-0.0 size=N/A time=00:03:09.64 bitrate=N/A speed=19.4x    frame= 4758 fps=462 q=-0.0 size=N/A time=00:03:18.44 bitrate=N/A speed=19.3x    frame= 4994 fps=461 q=-0.0 size=N/A time=00:03:28.29 bitrate=N/A speed=19.2x    frame= 5240 fps=462 q=-0.0 size=N/A time=00:03:38.55 bitrate=N/A speed=19.3x    frame= 5483 fps=463 q=-0.0 size=N/A time=00:03:48.68 bitrate=N/A speed=19.3x    frame= 5761 fps=465 q=-0.0 size=N/A time=00:04:00.28 bitrate=N/A speed=19.4x    frame= 6023 fps=467 q=-0.0 size=N/A time=00:04:11.20 bitrate=N/A speed=19.5x    frame= 6250 fps=467 q=-0.0 size=N/A time=00:04:20.67 bitrate=N/A speed=19.5x    frame= 6468 fps=465 q=-0.0 size=N/A time=00:04:29.76 bitrate=N/A speed=19.4x    frame= 6711 fps=465 q=-0.0 size=N/A time=00:04:39.90 bitrate=N/A speed=19.4x    frame= 6982 fps=467 q=-0.0 size=N/A time=00:04:51.20 bitrate=N/A speed=19.5x    frame= 7239 fps=468 q=-0.0 size=N/A time=00:05:01.92 bitrate=N/A speed=19.5x    frame= 7467 fps=467 q=-0.0 size=N/A time=00:05:11.43 bitrate=N/A speed=19.5x    frame= 7698 fps=467 q=-0.0 size=N/A time=00:05:21.07 bitrate=N/A speed=19.5x    frame= 7875 fps=463 q=-0.0 size=N/A time=00:05:28.45 bitrate=N/A speed=19.3x    frame= 8067 fps=460 q=-0.0 size=N/A time=00:05:36.46 bitrate=N/A speed=19.2x    frame= 8235 fps=457 q=-0.0 size=N/A time=00:05:43.46 bitrate=N/A speed=  19x    frame= 8469 fps=456 q=-0.0 size=N/A time=00:05:53.22 bitrate=N/A speed=  19x    frame= 8733 fps=458 q=-0.0 size=N/A time=00:06:04.23 bitrate=N/A speed=19.1x    frame= 8988 fps=458 q=-0.0 size=N/A time=00:06:14.87 bitrate=N/A speed=19.1x    frame= 9216 fps=458 q=-0.0 size=N/A time=00:06:24.38 bitrate=N/A speed=19.1x    frame= 9487 fps=460 q=-0.0 size=N/A time=00:06:35.68 bitrate=N/A speed=19.2x    frame= 9717 fps=460 q=-0.0 size=N/A time=00:06:45.27 bitrate=N/A speed=19.2x    frame= 9951 fps=459 q=-0.0 size=N/A time=00:06:55.03 bitrate=N/A speed=19.2x    frame=10185 fps=459 q=-0.0 size=N/A time=00:07:04.79 bitrate=N/A speed=19.2x    frame=10410 fps=459 q=-0.0 size=N/A time=00:07:14.18 bitrate=N/A speed=19.1x    frame=10636 fps=458 q=-0.0 size=N/A time=00:07:23.60 bitrate=N/A speed=19.1x    frame=10884 fps=459 q=-0.0 size=N/A time=00:07:33.95 bitrate=N/A speed=19.1x    frame=11129 fps=459 q=-0.0 size=N/A time=00:07:44.17 bitrate=N/A speed=19.1x    frame=11361 fps=459 q=-0.0 size=N/A time=00:07:53.84 bitrate=N/A speed=19.1x    frame=11609 fps=459 q=-0.0 size=N/A time=00:08:04.19 bitrate=N/A speed=19.2x    frame=11866 fps=460 q=-0.0 size=N/A time=00:08:14.91 bitrate=N/A speed=19.2x    frame=12087 fps=459 q=-0.0 size=N/A time=00:08:24.12 bitrate=N/A speed=19.2x    frame=12338 fps=460 q=-0.0 size=N/A time=00:08:34.59 bitrate=N/A speed=19.2x    frame=12600 fps=461 q=-0.0 size=N/A time=00:08:45.52 bitrate=N/A speed=19.2x    frame=12841 fps=461 q=-0.0 size=N/A time=00:08:55.57 bitrate=N/A speed=19.2x    frame=13107 fps=462 q=-0.0 size=N/A time=00:09:06.67 bitrate=N/A speed=19.3x    frame=13357 fps=462 q=-0.0 size=N/A time=00:09:17.09 bitrate=N/A speed=19.3x    frame=13597 fps=462 q=-0.0 size=N/A time=00:09:27.10 bitrate=N/A speed=19.3x    frame=13838 fps=462 q=-0.0 size=N/A time=00:09:37.15 bitrate=N/A speed=19.3x    frame=14085 fps=463 q=-0.0 size=N/A time=00:09:47.46 bitrate=N/A speed=19.3x    frame=14301 fps=462 q=-0.0 size=N/A time=00:09:56.47 bitrate=N/A speed=19.3x    frame=14530 fps=462 q=-0.0 size=N/A time=00:10:06.02 bitrate=N/A speed=19.3x    frame=14764 fps=462 q=-0.0 size=N/A time=00:10:15.78 bitrate=N/A speed=19.3x    frame=14980 fps=461 q=-0.0 size=N/A time=00:10:24.79 bitrate=N/A speed=19.2x    frame=15200 fps=460 q=-0.0 size=N/A time=00:10:33.96 bitrate=N/A speed=19.2x    frame=15429 fps=460 q=-0.0 size=N/A time=00:10:43.51 bitrate=N/A speed=19.2x    frame=15639 fps=459 q=-0.0 size=N/A time=00:10:52.27 bitrate=N/A speed=19.1x    frame=15902 fps=460 q=-0.0 size=N/A time=00:11:03.24 bitrate=N/A speed=19.2x    frame=16120 fps=459 q=-0.0 size=N/A time=00:11:12.33 bitrate=N/A speed=19.1x    frame=16338 fps=459 q=-0.0 size=N/A time=00:11:21.43 bitrate=N/A speed=19.1x    frame=16583 fps=459 q=-0.0 size=N/A time=00:11:31.64 bitrate=N/A speed=19.1x    frame=16846 fps=460 q=-0.0 size=N/A time=00:11:42.61 bitrate=N/A speed=19.2x    frame=17105 fps=460 q=-0.0 size=N/A time=00:11:53.42 bitrate=N/A speed=19.2x    frame=17351 fps=460 q=-0.0 size=N/A time=00:12:03.68 bitrate=N/A speed=19.2x    frame=17615 fps=461 q=-0.0 size=N/A time=00:12:14.69 bitrate=N/A speed=19.2x    frame=17870 fps=461 q=-0.0 size=N/A time=00:12:25.32 bitrate=N/A speed=19.2x    frame=18126 fps=462 q=-0.0 size=N/A time=00:12:36.00 bitrate=N/A speed=19.3x    frame=18366 fps=462 q=-0.0 size=N/A time=00:12:46.01 bitrate=N/A speed=19.3x    frame=18622 fps=462 q=-0.0 size=N/A time=00:12:56.69 bitrate=N/A speed=19.3x    frame=18865 fps=462 q=-0.0 size=N/A time=00:13:06.82 bitrate=N/A speed=19.3x    frame=19088 fps=462 q=-0.0 size=N/A time=00:13:16.12 bitrate=N/A speed=19.3x    frame=19350 fps=462 q=-0.0 size=N/A time=00:13:27.05 bitrate=N/A speed=19.3x    frame=19585 fps=462 q=-0.0 size=N/A time=00:13:36.85 bitrate=N/A speed=19.3x    frame=19852 fps=463 q=-0.0 size=N/A time=00:13:47.99 bitrate=N/A speed=19.3x    frame=20099 fps=463 q=-0.0 size=N/A time=00:13:58.29 bitrate=N/A speed=19.3x    frame=20359 fps=464 q=-0.0 size=N/A time=00:14:09.13 bitrate=N/A speed=19.3x    frame=20602 fps=464 q=-0.0 size=N/A time=00:14:19.27 bitrate=N/A speed=19.3x    frame=20827 fps=463 q=-0.0 size=N/A time=00:14:28.65 bitrate=N/A speed=19.3x    frame=21019 fps=462 q=-0.0 size=N/A time=00:14:36.66 bitrate=N/A speed=19.3x    frame=21278 fps=463 q=-0.0 size=N/A time=00:14:47.46 bitrate=N/A speed=19.3x    frame=21541 fps=463 q=-0.0 size=N/A time=00:14:58.43 bitrate=N/A speed=19.3x    frame=21798 fps=464 q=-0.0 size=N/A time=00:15:09.15 bitrate=N/A speed=19.3x    frame=22035 fps=464 q=-0.0 size=N/A time=00:15:19.04 bitrate=N/A speed=19.3x    frame=22306 fps=464 q=-0.0 size=N/A time=00:15:30.34 bitrate=N/A speed=19.4x    frame=22561 fps=465 q=-0.0 size=N/A time=00:15:40.98 bitrate=N/A speed=19.4x    frame=22808 fps=465 q=-0.0 size=N/A time=00:15:51.28 bitrate=N/A speed=19.4x    frame=22993 fps=464 q=-0.0 size=N/A time=00:15:58.99 bitrate=N/A speed=19.3x    frame=23254 fps=464 q=-0.0 size=N/A time=00:16:09.88 bitrate=N/A speed=19.4x    frame=23503 fps=464 q=-0.0 size=N/A time=00:16:20.27 bitrate=N/A speed=19.4x    frame=23750 fps=464 q=-0.0 size=N/A time=00:16:30.57 bitrate=N/A speed=19.4x    frame=23985 fps=464 q=-0.0 size=N/A time=00:16:40.37 bitrate=N/A speed=19.4x    frame=24242 fps=465 q=-0.0 size=N/A time=00:16:51.09 bitrate=N/A speed=19.4x    frame=24484 fps=465 q=-0.0 size=N/A time=00:17:01.18 bitrate=N/A speed=19.4x    frame=24734 fps=465 q=-0.0 size=N/A time=00:17:11.61 bitrate=N/A speed=19.4x    frame=24990 fps=465 q=-0.0 size=N/A time=00:17:22.29 bitrate=N/A speed=19.4x    frame=25238 fps=465 q=-0.0 size=N/A time=00:17:32.63 bitrate=N/A speed=19.4x    frame=25498 fps=466 q=-0.0 size=N/A time=00:17:43.47 bitrate=N/A speed=19.4x    frame=25759 fps=466 q=-0.0 size=N/A time=00:17:54.36 bitrate=N/A speed=19.4x    frame=26032 fps=467 q=-0.0 size=N/A time=00:18:05.75 bitrate=N/A speed=19.5x    frame=26294 fps=467 q=-0.0 size=N/A time=00:18:16.67 bitrate=N/A speed=19.5x    frame=26530 fps=467 q=-0.0 size=N/A time=00:18:26.52 bitrate=N/A speed=19.5x    frame=26749 fps=467 q=-0.0 size=N/A time=00:18:35.65 bitrate=N/A speed=19.5x    frame=26998 fps=467 q=-0.0 size=N/A time=00:18:46.04 bitrate=N/A speed=19.5x    frame=27271 fps=467 q=-0.0 size=N/A time=00:18:57.42 bitrate=N/A speed=19.5x    frame=27522 fps=468 q=-0.0 size=N/A time=00:19:07.89 bitrate=N/A speed=19.5x    frame=27740 fps=467 q=-0.0 size=N/A time=00:19:16.98 bitrate=N/A speed=19.5x    frame=27988 fps=467 q=-0.0 size=N/A time=00:19:27.33 bitrate=N/A speed=19.5x    frame=28248 fps=468 q=-0.0 size=N/A time=00:19:38.17 bitrate=N/A speed=19.5x    frame=28527 fps=468 q=-0.0 size=N/A time=00:19:49.81 bitrate=N/A speed=19.5x    frame=28740 fps=468 q=-0.0 size=N/A time=00:19:58.69 bitrate=N/A speed=19.5x    frame=28987 fps=468 q=-0.0 size=N/A time=00:20:08.99 bitrate=N/A speed=19.5x    frame=29246 fps=468 q=-0.0 size=N/A time=00:20:19.80 bitrate=N/A speed=19.5x    frame=29490 fps=468 q=-0.0 size=N/A time=00:20:29.97 bitrate=N/A speed=19.5x    frame=29746 fps=468 q=-0.0 size=N/A time=00:20:40.65 bitrate=N/A speed=19.5x    frame=29972 fps=468 q=-0.0 size=N/A time=00:20:50.08 bitrate=N/A speed=19.5x    frame=30187 fps=468 q=-0.0 size=N/A time=00:20:59.04 bitrate=N/A speed=19.5x    frame=30398 fps=467 q=-0.0 size=N/A time=00:21:07.84 bitrate=N/A speed=19.5x    frame=30621 fps=467 q=-0.0 size=N/A time=00:21:17.15 bitrate=N/A speed=19.5x    frame=30847 fps=467 q=-0.0 size=N/A time=00:21:26.57 bitrate=N/A speed=19.5x    frame=31062 fps=466 q=-0.0 size=N/A time=00:21:35.54 bitrate=N/A speed=19.5x    frame=31304 fps=466 q=-0.0 size=N/A time=00:21:45.63 bitrate=N/A speed=19.5x    frame=31564 fps=467 q=-0.0 size=N/A time=00:21:56.48 bitrate=N/A speed=19.5x    frame=31839 fps=467 q=-0.0 size=N/A time=00:22:07.95 bitrate=N/A speed=19.5x    frame=32089 fps=467 q=-0.0 size=N/A time=00:22:18.37 bitrate=N/A speed=19.5x    frame=32356 fps=468 q=-0.0 size=N/A time=00:22:29.51 bitrate=N/A speed=19.5x    frame=32599 fps=468 q=-0.0 size=N/A time=00:22:39.64 bitrate=N/A speed=19.5x    frame=32826 fps=468 q=-0.0 size=N/A time=00:22:49.11 bitrate=N/A speed=19.5x    frame=33079 fps=468 q=-0.0 size=N/A time=00:22:59.66 bitrate=N/A speed=19.5x    frame=33331 fps=468 q=-0.0 size=N/A time=00:23:10.18 bitrate=N/A speed=19.5x    frame=33597 fps=468 q=-0.0 size=N/A time=00:23:21.27 bitrate=N/A speed=19.5x    frame=33850 fps=468 q=-0.0 size=N/A time=00:23:31.82 bitrate=N/A speed=19.5x    frame=34101 fps=468 q=-0.0 size=N/A time=00:23:42.29 bitrate=N/A speed=19.5x    frame=34353 fps=469 q=-0.0 size=N/A time=00:23:52.80 bitrate=N/A speed=19.5x    frame=34611 fps=469 q=-0.0 size=N/A time=00:24:03.56 bitrate=N/A speed=19.6x    frame=34855 fps=469 q=-0.0 size=N/A time=00:24:13.74 bitrate=N/A speed=19.6x    frame=35111 fps=469 q=-0.0 size=N/A time=00:24:24.42 bitrate=N/A speed=19.6x    frame=35372 fps=469 q=-0.0 size=N/A time=00:24:35.30 bitrate=N/A speed=19.6x    [Parsed_ssim_10 @ 0000014d4772c300] SSIM Y:0.994268 (22.416736) U:0.993444 (21.833809) V:0.993463 (21.846486) All:0.993996 (22.215912)
[out#0/null @ 0000014d4728ec40] video:15212KiB audio:276876KiB subtitle:0KiB other streams:0KiB global headers:0KiB muxing overhead: unknown
frame=35402 fps=469 q=-0.0 Lsize=N/A time=00:24:36.55 bitrate=N/A speed=19.6x    
